<svg width="56" height="56" viewBox="0 0 56 56" fill="none" xmlns="http://www.w3.org/2000/svg">
<rect width="56" height="56" rx="4" fill="#F9FAFB"/>
<g clip-path="url(#clip0)">
<path d="M32.5781 16.8107L20.477 23.0063L15.667 20.6396L27.5548 14.7696C27.8214 14.6341 28.1414 14.6341 28.4214 14.7696L32.5781 16.8107Z" fill="#4E50FF"/>
<path d="M40.3206 20.6391L28.0073 26.7392L23.3962 24.4669L22.7295 24.128L34.8439 17.9336L35.5106 18.2714L40.3206 20.6391Z" fill="#4E50FF"/>
<path d="M27.0203 28.4965L27.007 41.3332L15.2137 35.1787C14.8803 35.0032 14.667 34.6509 14.667 34.272V22.3965L19.6648 24.8587V29.1876C19.6648 29.742 20.1181 30.202 20.6648 30.202C21.2114 30.202 21.6648 29.742 21.6648 29.1876V25.8598L22.3314 26.1843L27.0203 28.4965Z" fill="#4E50FF"/>
<path d="M41.3202 22.4102L29.0202 28.4835L29.0068 41.3202L41.3335 34.8835L41.3202 22.4102Z" fill="#4E50FF"/>
</g>
<defs>
<clipPath id="clip0">
<rect width="26.6667" height="26.6667" fill="white" transform="translate(14.667 14.667)"/>
</clipPath>
</defs>
</svg>
