<svg width="22" height="22" viewBox="0 0 22 22" fill="none" xmlns="http://www.w3.org/2000/svg">
<path d="M21 11C21 5.47311 16.5275 1 11 1C5.47311 1 1 5.4725 1 11C1 16.4779 5.43512 21 11 21C16.542 21 21 16.5031 21 11ZM11 2.17188C15.8679 2.17188 19.8281 6.13214 19.8281 11C19.8281 12.7807 19.2985 14.4923 18.3163 15.942C14.3722 11.6995 7.63498 11.6918 3.68372 15.942C2.70151 14.4923 2.17188 12.7807 2.17188 11C2.17188 6.13214 6.13214 2.17188 11 2.17188ZM4.41461 16.8789C7.92139 12.9455 14.0795 12.9464 17.5852 16.8789C14.0667 20.8154 7.93466 20.8166 4.41461 16.8789Z" fill="#0915CC"/>
<path fill-rule="evenodd" clip-rule="evenodd" d="M0.75 11C0.75 5.33442 5.33505 0.75 11 0.75C16.6656 0.75 21.25 5.33505 21.25 11C21.25 16.6405 16.6807 21.25 11 21.25C5.29563 21.25 0.75 16.6146 0.75 11ZM11 1.25C5.61118 1.25 1.25 5.61058 1.25 11C1.25 16.3413 5.5746 20.75 11 20.75C16.4033 20.75 20.75 16.3656 20.75 11C20.75 5.61118 16.3894 1.25 11 1.25ZM11 2.42188C6.27021 2.42188 2.42188 6.27021 2.42188 11C2.42188 12.6253 2.87574 14.1906 3.72123 15.5416C7.72307 11.4922 14.2836 11.4993 18.2788 15.5416C19.1243 14.1906 19.5781 12.6253 19.5781 11C19.5781 6.27021 15.7298 2.42188 11 2.42188ZM1.92188 11C1.92188 5.99407 5.99407 1.92188 11 1.92188C16.0059 1.92188 20.0781 5.99407 20.0781 11C20.0781 12.8307 19.5335 14.5911 18.5233 16.0822L18.3471 16.3423L18.1332 16.1122C14.2879 11.9759 7.71907 11.9686 3.86681 16.1122L3.65293 16.3423L3.47674 16.0822C2.46649 14.5911 1.92188 12.8307 1.92188 11ZM17.2463 16.8787C13.8563 20.4822 8.14499 20.4833 4.75361 16.8787C8.13312 13.2789 13.8677 13.2798 17.2463 16.8787ZM4.228 16.7125C7.83421 12.6676 14.1667 12.6685 17.7718 16.7125L17.9203 16.8791L17.7716 17.0455C14.1537 21.0932 7.84768 21.0944 4.22823 17.0455L4.07948 16.8791L4.228 16.7125Z" fill="#0915CC"/>
<path fill-rule="evenodd" clip-rule="evenodd" d="M10.9805 5.70703C9.66448 5.70703 8.59766 6.77385 8.59766 8.08984C8.59766 9.40583 9.66448 10.4727 10.9805 10.4727C12.2965 10.4727 13.3633 9.40583 13.3633 8.08984C13.3633 6.77385 12.2965 5.70703 10.9805 5.70703ZM7.62109 8.08984C7.62109 6.23451 9.12514 4.73047 10.9805 4.73047C12.8358 4.73047 14.3398 6.23451 14.3398 8.08984C14.3398 9.94518 12.8358 11.4492 10.9805 11.4492C9.12514 11.4492 7.62109 9.94518 7.62109 8.08984Z" fill="#0915CC"/>
<path fill-rule="evenodd" clip-rule="evenodd" d="M7.37109 8.08984C7.37109 6.09644 8.98707 4.48047 10.9805 4.48047C12.9739 4.48047 14.5898 6.09644 14.5898 8.08984C14.5898 10.0832 12.9739 11.6992 10.9805 11.6992C8.98707 11.6992 7.37109 10.0832 7.37109 8.08984ZM10.9805 4.98047C9.26321 4.98047 7.87109 6.37258 7.87109 8.08984C7.87109 9.8071 9.26321 11.1992 10.9805 11.1992C12.6977 11.1992 14.0898 9.8071 14.0898 8.08984C14.0898 6.37258 12.6977 4.98047 10.9805 4.98047ZM10.9805 5.95703C9.80255 5.95703 8.84766 6.91192 8.84766 8.08984C8.84766 9.26776 9.80255 10.2227 10.9805 10.2227C12.1584 10.2227 13.1133 9.26776 13.1133 8.08984C13.1133 6.91192 12.1584 5.95703 10.9805 5.95703ZM8.34766 8.08984C8.34766 6.63578 9.52641 5.45703 10.9805 5.45703C12.4345 5.45703 13.6133 6.63578 13.6133 8.08984C13.6133 9.54391 12.4345 10.7227 10.9805 10.7227C9.52641 10.7227 8.34766 9.54391 8.34766 8.08984Z" fill="#0915CC"/>
</svg>
