<svg width="18" height="18" viewBox="0 0 18 18" fill="none" xmlns="http://www.w3.org/2000/svg">
<path fill-rule="evenodd" clip-rule="evenodd" d="M8.99984 0.666992C4.39984 0.666992 0.666504 4.40033 0.666504 9.00033C0.666504 13.6003 4.39984 17.3337 8.99984 17.3337C13.5998 17.3337 17.3332 13.6003 17.3332 9.00033C17.3332 4.40033 13.5998 0.666992 8.99984 0.666992ZM8.1665 9.00033C8.1665 8.54009 8.5396 8.16699 8.99984 8.16699C9.46008 8.16699 9.83317 8.54009 9.83317 9.00033V12.3337C9.83317 12.7939 9.46008 13.167 8.99984 13.167C8.5396 13.167 8.1665 12.7939 8.1665 12.3337V9.00033ZM8.99984 4.83366C8.5396 4.83366 8.1665 5.20675 8.1665 5.66699C8.1665 6.12723 8.5396 6.50033 8.99984 6.50033C9.46008 6.50033 9.83317 6.12723 9.83317 5.66699C9.83317 5.20675 9.46008 4.83366 8.99984 4.83366Z" fill="#0915CC"/>
</svg>
