<svg width="20" height="18" viewBox="0 0 20 18" fill="none" xmlns="http://www.w3.org/2000/svg">
<path fill-rule="evenodd" clip-rule="evenodd" d="M9.6653 0.800228C9.85545 0.629091 10.1441 0.629091 10.3343 0.800228L19.0313 8.62755C19.3719 8.93409 19.155 9.49919 18.6968 9.49919H16.9998V16.9992C16.9998 17.2753 16.7759 17.4992 16.4998 17.4992H11.4998C11.2236 17.4992 10.9998 17.2753 10.9998 16.9992V11.4992H8.99978V16.9992C8.99978 17.2753 8.77593 17.4992 8.49978 17.4992H3.49978C3.22364 17.4992 2.99978 17.2753 2.99978 16.9992V9.49919H1.30276C0.844521 9.49919 0.627673 8.93409 0.968281 8.62755L9.6653 0.800228ZM14.9998 7.68919L9.99978 3.18919L4.99978 7.68919V15.4992H6.99978V9.49919H12.9998V15.4992H14.9998V7.68919Z" fill="#757C9F"/>
</svg>
