<svg width="20" height="20" viewBox="0 0 20 20" fill="none" xmlns="http://www.w3.org/2000/svg">
<path fill-rule="evenodd" clip-rule="evenodd" d="M10 0C4.48 0 0 4.48 0 10C0 15.52 4.48 20 10 20C15.52 20 20 15.52 20 10C20 4.48 15.52 0 10 0ZM10 18C5.59 18 2 14.41 2 10C2 5.59 5.59 2 10 2C14.41 2 18 5.59 18 10C18 14.41 14.41 18 10 18ZM13.8804 6.28961C14.2719 5.89811 14.9074 5.89963 15.2975 6.29251C15.6857 6.68343 15.6849 7.31506 15.2954 7.70461L8.35355 14.6464C8.15829 14.8417 7.84171 14.8417 7.64645 14.6464L4.70568 11.7057C4.31594 11.3159 4.31594 10.6841 4.70568 10.2943C5.09489 9.90511 5.72572 9.9045 6.11568 10.293L8 12.17L13.8804 6.28961Z" fill="#757C9F"/>
</svg>
