<svg width="24" height="24" viewBox="0 0 24 24" fill="none" xmlns="http://www.w3.org/2000/svg">
<g clip-path="url(#clip0)">
<path d="M3.17902 8.4835L12 2.95666L20.821 8.4835L12 13.9737L3.17902 8.4835Z" stroke="#757C9F" stroke-width="1.8"/>
<path d="M21.7248 11.5039L20.8124 10.9336L12.9315 15.8349C12.6529 16.0094 12.3302 16.1021 12 16.1021C11.6698 16.1021 11.3471 16.0094 11.0673 15.8343L3.18746 10.9337L2.27523 11.5039C2.10414 11.6109 2 11.7986 2 12.0005C2 12.2025 2.10414 12.3902 2.27523 12.4972L11.6893 18.3566C11.7843 18.4161 11.8924 18.4459 12 18.4459C12.1076 18.4459 12.2157 18.4161 12.3107 18.3566L21.7248 12.4972C21.8959 12.3902 22 12.2025 22 12.0005C22 11.7986 21.8959 11.6109 21.7248 11.5039Z" fill="#757C9F"/>
<path d="M21.7248 15.0195L20.8124 14.4492L12.9315 19.3505C12.6529 19.5251 12.3302 19.6178 12 19.6178C11.6698 19.6178 11.3471 19.5251 11.0673 19.35L3.18746 14.4494L2.27523 15.0195C2.10414 15.1265 2 15.3142 2 15.5162C2 15.7182 2.10414 15.9059 2.27523 16.0129L11.6893 21.9113C11.7843 21.9708 11.8924 22.0006 12 22.0006C12.1076 22.0006 12.2157 21.9708 12.3107 21.9113L21.7248 16.0129C21.8959 15.9059 22 15.7182 22 15.5162C22 15.3142 21.8959 15.1265 21.7248 15.0195Z" fill="#757C9F"/>
</g>
<defs>
<clipPath id="clip0">
<rect width="20" height="20" fill="white" transform="translate(2 2)"/>
</clipPath>
</defs>
</svg>
