<svg width="24" height="24" viewBox="0 0 24 24" fill="none" xmlns="http://www.w3.org/2000/svg">
<path fill-rule="evenodd" clip-rule="evenodd" d="M4.85714 4.85714C4.06816 4.85714 3.42857 5.49674 3.42857 6.28571V19.1429C3.42857 19.9318 4.06816 20.5714 4.85714 20.5714H19.1429C19.9318 20.5714 20.5714 19.9318 20.5714 19.1429V6.28571C20.5714 5.49674 19.9318 4.85714 19.1429 4.85714H4.85714ZM2 6.28571C2 4.70776 3.27919 3.42857 4.85714 3.42857H19.1429C20.7208 3.42857 22 4.70776 22 6.28571V19.1429C22 20.7208 20.7208 22 19.1429 22H4.85714C3.27919 22 2 20.7208 2 19.1429V6.28571Z" fill="#B5B8C7"/>
<path fill-rule="evenodd" clip-rule="evenodd" d="M6.28571 2C6.6802 2 7 2.3198 7 2.71429V4.14286C7 4.53735 6.6802 4.85714 6.28571 4.85714C5.89123 4.85714 5.57143 4.53735 5.57143 4.14286V2.71429C5.57143 2.3198 5.89123 2 6.28571 2ZM17.7143 2C18.1088 2 18.4286 2.3198 18.4286 2.71429V4.14286C18.4286 4.53735 18.1088 4.85714 17.7143 4.85714C17.3198 4.85714 17 4.53735 17 4.14286V2.71429C17 2.3198 17.3198 2 17.7143 2Z" fill="#B5B8C7"/>
<path fill-rule="evenodd" clip-rule="evenodd" d="M6.28571 11.2857V14.1429H9.14286V11.2857H6.28571ZM4.85714 11.1518C4.85714 10.4368 5.43677 9.85714 6.15179 9.85714H9.27679C9.9918 9.85714 10.5714 10.4368 10.5714 11.1518V14.2768C10.5714 14.9918 9.9918 15.5714 9.27679 15.5714H6.15179C5.43677 15.5714 4.85714 14.9918 4.85714 14.2768V11.1518Z" fill="#B5B8C7"/>
<path fill-rule="evenodd" clip-rule="evenodd" d="M2 7.71429C2 7.3198 2.3198 7 2.71429 7H21.2857C21.6802 7 22 7.3198 22 7.71429C22 8.10877 21.6802 8.42857 21.2857 8.42857H2.71429C2.3198 8.42857 2 8.10877 2 7.71429Z" fill="#B5B8C7"/>
</svg>
