<svg width="12" height="12" viewBox="0 0 12 12" fill="none" xmlns="http://www.w3.org/2000/svg">
<path d="M11.2458 1.92925C11.5703 1.60478 11.5703 1.07872 11.2458 0.754248C10.9214 0.429781 10.3953 0.429781 10.0708 0.754248L6 4.82508L1.92917 0.754248C1.6047 0.429781 1.07864 0.429781 0.754168 0.754248C0.429701 1.07872 0.429701 1.60478 0.754168 1.92925L4.825 6.00008L0.754168 10.0709C0.429701 10.3954 0.429701 10.9214 0.754168 11.2459C1.07864 11.5704 1.6047 11.5704 1.92917 11.2459L6 7.17508L10.0708 11.2459C10.3953 11.5704 10.9214 11.5704 11.2458 11.2459C11.5703 10.9214 11.5703 10.3954 11.2458 10.0709L7.175 6.00008L11.2458 1.92925Z" fill="#B5B8C7"/>
</svg>
