<svg width="24" height="24" viewBox="0 0 24 24" fill="none" xmlns="http://www.w3.org/2000/svg">
<path d="M18.5181 8.15L17.7701 8.09488L17.7701 8.09501L18.5181 8.15ZM12.6253 8.15L13.3733 8.09596L13.3733 8.09588L12.6253 8.15ZM9.16373 18.2742L9.89056 18.4592L9.89062 18.4589L9.16373 18.2742ZM21.9801 18.2742L21.2525 18.4562L21.2526 18.4566L21.9801 18.2742ZM9.50032 8.93488L8.75234 8.87988L8.75234 8.87989L9.50032 8.93488ZM4.76825 8.93488L4.02019 8.98886L4.0202 8.98891L4.76825 8.93488ZM9.46097 14.8717C9.83884 15.0413 10.2827 14.8726 10.4524 14.4947C10.622 14.1168 10.4533 13.673 10.0754 13.5033L9.46097 14.8717ZM2.01606 17.0203L1.2892 16.8354L1.28894 16.8365L2.01606 17.0203ZM7.44679 18.35C7.861 18.35 8.19679 18.0142 8.19679 17.6C8.19679 17.1858 7.861 16.85 7.44679 16.85V18.35ZM17.7701 8.09501C17.6616 9.57038 16.5652 10.55 15.5717 10.55V12.05C17.5157 12.05 19.1129 10.2882 19.2661 8.20499L17.7701 8.09501ZM15.5717 10.55C14.5774 10.55 13.4798 9.57005 13.3733 8.09596L11.8772 8.20404C12.0279 10.2894 13.6285 12.05 15.5717 12.05V10.55ZM13.3733 8.09588C13.3206 7.36674 13.5512 6.79177 13.9267 6.3994C14.3052 6.00387 14.8734 5.75 15.5717 5.75V4.25C14.5008 4.25 13.5288 4.6456 12.843 5.3623C12.1541 6.08217 11.7961 7.0822 11.8772 8.20412L13.3733 8.09588ZM15.5717 5.75C16.9212 5.75 17.8708 6.72834 17.7701 8.09488L19.266 8.20512C19.4332 5.93691 17.7605 4.25 15.5717 4.25V5.75ZM15.5717 13.35C12.4757 13.35 9.25542 14.8683 8.43683 18.0895L9.89062 18.4589C10.4738 16.1641 12.849 14.85 15.5717 14.85V13.35ZM8.4369 18.0892C8.24493 18.8435 8.73125 19.75 9.68694 19.75V18.25C9.71176 18.25 9.74682 18.2565 9.78329 18.2759C9.81858 18.2947 9.84498 18.3201 9.86254 18.3454C9.89691 18.3947 9.89582 18.4385 9.89056 18.4592L8.4369 18.0892ZM9.68694 19.75H21.4569V18.25H9.68694V19.75ZM21.4569 19.75C22.4153 19.75 22.8956 18.8413 22.7075 18.0917L21.2526 18.4566C21.2478 18.4375 21.2463 18.3949 21.2804 18.3459C21.2979 18.3207 21.3244 18.2951 21.3599 18.2761C21.3967 18.2565 21.432 18.25 21.4569 18.25V19.75ZM22.7077 18.0922C21.8891 14.8195 18.6611 13.35 15.5717 13.35V14.85C18.3018 14.85 20.6693 16.1245 21.2525 18.4562L22.7077 18.0922ZM8.75234 8.87989C8.6699 10.0013 7.82843 10.725 7.13428 10.725V12.225C8.78653 12.225 10.1218 10.7105 10.2483 8.98986L8.75234 8.87989ZM7.13428 10.725C6.43935 10.725 5.59721 10.0009 5.5163 8.88084L4.0202 8.98891C4.14464 10.7117 5.48282 12.225 7.13428 12.225V10.725ZM5.5163 8.88089C5.44225 7.85492 6.13813 7.15 7.13428 7.15V5.65C5.30369 5.65 3.88085 7.0582 4.02019 8.98886L5.5163 8.88089ZM7.13428 7.15C8.12547 7.15 8.82608 7.87693 8.75234 8.87988L10.2483 8.98987C10.3879 7.09044 8.96984 5.65 7.13428 5.65V7.15ZM10.0754 13.5033C9.146 13.086 8.14656 12.9365 7.13429 12.9365V14.4365C8.00325 14.4365 8.77879 14.5654 9.46097 14.8717L10.0754 13.5033ZM7.13429 12.9365C4.62641 12.9365 1.96726 14.1694 1.2892 16.8354L2.74292 17.2052C3.18538 15.4655 4.99938 14.4365 7.13429 14.4365V12.9365ZM1.28894 16.8365C1.11704 17.5164 1.55589 18.35 2.43436 18.35V16.85C2.53638 16.85 2.63924 16.9057 2.6984 16.9906C2.75156 17.0669 2.75769 17.1467 2.74319 17.2041L1.28894 16.8365ZM2.43436 18.35H7.44679V16.85H2.43436V18.35Z" fill="#070808"/>
</svg>
