<svg width="24" height="24" viewBox="0 0 24 24" fill="none" xmlns="http://www.w3.org/2000/svg">
<path d="M7.02594 8.44466V13.0652C7.02594 14.1028 6.30923 14.8498 5.11934 14.8498C3.92946 14.8498 3.21275 14.1028 3.21275 13.0652V8.44466H2.34991V13.1344C2.34991 14.587 3.44237 15.6522 5.11934 15.6522C6.79631 15.6522 7.88878 14.587 7.88878 13.1344V8.44466H7.02594Z" fill="#B5B8C7"/>
<path d="M13.6065 10.2154H14.4415C14.4033 9.14674 13.4117 8.34783 12.0339 8.34783C10.6701 8.34783 9.59849 9.13636 9.59849 10.3261C9.59849 11.2806 10.2943 11.8478 11.4077 12.166L12.2844 12.415C13.0359 12.6225 13.7039 12.8854 13.7039 13.5909C13.7039 14.3656 12.9524 14.8775 11.9643 14.8775C11.1154 14.8775 10.3639 14.504 10.2943 13.7016H9.40365C9.48715 14.8636 10.4335 15.6522 11.9643 15.6522C13.6065 15.6522 14.5389 14.753 14.5389 13.6047C14.5389 12.2767 13.2725 11.8478 12.5349 11.6542L11.8113 11.4605C11.2824 11.3221 10.4335 11.0455 10.4335 10.2846C10.4335 9.60672 11.0597 9.1087 12.0061 9.1087C12.8689 9.1087 13.523 9.5168 13.6065 10.2154Z" fill="#B5B8C7"/>
<path d="M18.2544 15.5277C20.4254 15.5277 21.6501 14.1858 21.6501 11.9723C21.6501 9.77273 20.4254 8.44466 18.3518 8.44466H16.0556V15.5277H18.2544ZM16.9184 14.7668V9.20553H18.2962C19.9662 9.20553 20.8151 10.2569 20.8151 11.9723C20.8151 13.7016 19.9662 14.7668 18.1987 14.7668H16.9184Z" fill="#B5B8C7"/>
<path fill-rule="evenodd" clip-rule="evenodd" d="M6.67603 8.44466C6.67603 8.25256 6.83269 8.09684 7.02594 8.09684H7.88878C8.08203 8.09684 8.23869 8.25256 8.23869 8.44466V13.1344C8.23869 13.9509 7.9297 14.6745 7.37167 15.1923C6.81495 15.7088 6.03303 16 5.11934 16C4.20565 16 3.42373 15.7088 2.86701 15.1923C2.30898 14.6745 2 13.9509 2 13.1344V8.44466C2 8.25256 2.15666 8.09684 2.34991 8.09684H3.21275C3.406 8.09684 3.56265 8.25256 3.56265 8.44466V13.0652C3.56265 13.5024 3.71201 13.8543 3.96357 14.097C4.21543 14.3401 4.59923 14.502 5.11934 14.502C5.63945 14.502 6.02325 14.3401 6.27512 14.097C6.52668 13.8543 6.67603 13.5024 6.67603 13.0652V8.44466ZM7.02594 13.0652C7.02594 14.1028 6.30923 14.8498 5.11934 14.8498C3.92946 14.8498 3.21275 14.1028 3.21275 13.0652V8.44466H2.34991V13.1344C2.34991 14.587 3.44237 15.6522 5.11934 15.6522C6.79631 15.6522 7.88878 14.587 7.88878 13.1344V8.44466H7.02594V13.0652ZM13.6065 10.5632C13.4292 10.5632 13.28 10.4314 13.2591 10.2565C13.2054 9.80781 12.7798 9.45652 12.0061 9.45652C11.5918 9.45652 11.2785 9.56569 11.0777 9.71859C10.8823 9.8673 10.7834 10.0623 10.7834 10.2846C10.7834 10.5094 10.8988 10.6735 11.116 10.8152C11.3432 10.9634 11.6394 11.0559 11.9003 11.1241L11.9022 11.1246L12.6243 11.3179C12.6246 11.3179 12.6249 11.318 12.6252 11.3181C13.001 11.4168 13.5558 11.5855 14.0202 11.9234C14.5 12.2725 14.8888 12.8083 14.8888 13.6047C14.8888 14.2784 14.6126 14.8884 14.0933 15.3247C13.578 15.7577 12.8481 16 11.9643 16C11.1405 16 10.4392 15.7877 9.92506 15.3862C9.40601 14.9808 9.10313 14.4012 9.05464 13.7264C9.04772 13.6301 9.08138 13.5352 9.14757 13.4646C9.21376 13.3939 9.30652 13.3538 9.40365 13.3538H10.2943C10.4759 13.3538 10.6273 13.4919 10.6429 13.6717C10.6676 13.9561 10.8065 14.1572 11.0265 14.2979C11.2573 14.4456 11.586 14.5296 11.9643 14.5296C12.4015 14.5296 12.7599 14.4159 12.9991 14.2433C13.2315 14.0754 13.354 13.8532 13.354 13.5909C13.354 13.3745 13.2634 13.2307 13.0766 13.102C12.8692 12.9591 12.5665 12.8539 12.1908 12.7502L12.1883 12.7495L11.3115 12.5005C10.7259 12.3331 10.2126 12.0905 9.84238 11.7348C9.46192 11.3692 9.24858 10.8988 9.24858 10.3261C9.24858 8.8736 10.5566 8 12.0339 8C13.5323 8 14.7441 8.88651 14.7912 10.203C14.7946 10.2974 14.7592 10.389 14.6933 10.457C14.6274 10.5249 14.5365 10.5632 14.4415 10.5632H13.6065ZM12.5349 11.6542L11.8113 11.4605C11.2824 11.3221 10.4335 11.0455 10.4335 10.2846C10.4335 9.60672 11.0597 9.1087 12.0061 9.1087C12.8689 9.1087 13.523 9.5168 13.6065 10.2154H14.4415C14.4372 10.0958 14.421 9.97966 14.3937 9.86759C14.1765 8.97797 13.2575 8.34783 12.0339 8.34783C10.6701 8.34783 9.59849 9.13636 9.59849 10.3261C9.59849 11.2806 10.2943 11.8478 11.4077 12.166L12.2844 12.415C13.0359 12.6225 13.7039 12.8854 13.7039 13.5909C13.7039 14.3656 12.9524 14.8775 11.9643 14.8775C11.1154 14.8775 10.3639 14.504 10.2943 13.7016H9.40365C9.41228 13.8217 9.43013 13.9378 9.45687 14.0494C9.68898 15.0182 10.5917 15.6522 11.9643 15.6522C13.6065 15.6522 14.5389 14.753 14.5389 13.6047C14.5389 12.2767 13.2725 11.8478 12.5349 11.6542ZM15.7056 8.44466C15.7056 8.25256 15.8623 8.09684 16.0556 8.09684H18.3518C19.4663 8.09684 20.3914 8.45603 21.0353 9.14733C21.6759 9.8351 22 10.8103 22 11.9723C22 13.1407 21.6762 14.1242 21.0216 14.818C20.364 15.515 19.4142 15.8755 18.2544 15.8755H16.0556C15.8623 15.8755 15.7056 15.7198 15.7056 15.5277V8.44466ZM16.0556 15.5277V8.44466H18.3518C20.4254 8.44466 21.6501 9.77273 21.6501 11.9723C21.6501 14.1858 20.4254 15.5277 18.2544 15.5277H16.0556ZM17.2683 9.55336V14.419H18.1987C19.0098 14.419 19.558 14.177 19.9086 13.7864C20.2653 13.3891 20.4652 12.7854 20.4652 11.9723C20.4652 11.1669 20.2656 10.5682 19.9188 10.175C19.5784 9.78904 19.054 9.55336 18.2962 9.55336H17.2683ZM16.9184 14.7668H18.1987C19.9662 14.7668 20.8151 13.7016 20.8151 11.9723C20.8151 10.2569 19.9662 9.20553 18.2962 9.20553H16.9184V14.7668Z" fill="#B5B8C7"/>
</svg>
