<svg width="24" height="24" viewBox="0 0 24 24" fill="none" xmlns="http://www.w3.org/2000/svg">
<path d="M0 4C0 1.79086 1.79086 0 4 0H20C22.2091 0 24 1.79086 24 4V20C24 22.2091 22.2091 24 20 24H4C1.79086 24 0 22.2091 0 20V4Z" fill="#F9FAFB"/>
<path fill-rule="evenodd" clip-rule="evenodd" d="M14.7222 5.27778L13.9444 4.5H10.0555L9.27776 5.27778H7.05554C6.7794 5.27778 6.55554 5.50164 6.55554 5.77778V7.33333C6.55554 7.60948 6.7794 7.83333 7.05554 7.83333H16.9444C17.2206 7.83333 17.4444 7.60948 17.4444 7.33333V5.77778C17.4444 5.50164 17.2206 5.27778 16.9444 5.27778H14.7222ZM7.33332 17.9444C7.33332 18.8 8.03332 19.5 8.88888 19.5H15.1111C15.9667 19.5 16.6667 18.8 16.6667 17.9444V8.61108H7.33332V17.9444ZM15.1111 10.1667H8.88888V17.9445H15.1111V10.1667Z" fill="#0915CC"/>
<rect x="0.25" y="0.25" width="23.5" height="23.5" rx="3.75" stroke="#0915CC" stroke-width="0.5"/>
</svg>
