<svg width="24" height="24" viewBox="0 0 24 24" fill="none" xmlns="http://www.w3.org/2000/svg">
<path d="M0 4C0 1.79086 1.79086 0 4 0H20C22.2091 0 24 1.79086 24 4V20C24 22.2091 22.2091 24 20 24H4C1.79086 24 0 22.2091 0 20V4Z" fill="white"/>
<path fill-rule="evenodd" clip-rule="evenodd" d="M14.7223 5.27778L13.9446 4.5H10.0557L9.27789 5.27778H7.05566C6.77952 5.27778 6.55566 5.50164 6.55566 5.77778V7.33333C6.55566 7.60948 6.77952 7.83333 7.05566 7.83333H16.9446C17.2207 7.83333 17.4446 7.60948 17.4446 7.33333V5.77778C17.4446 5.50164 17.2207 5.27778 16.9446 5.27778H14.7223ZM7.33344 17.9444C7.33344 18.8 8.03344 19.5 8.889 19.5H15.1112C15.9668 19.5 16.6668 18.8 16.6668 17.9444V8.61108H7.33344V17.9444ZM15.1112 10.1667H8.889V17.9445H15.1112V10.1667Z" fill="#FF3C2F"/>
<rect x="0.25" y="0.25" width="23.5" height="23.5" rx="3.75" stroke="#FF3C2F" stroke-width="0.5"/>
</svg>
