<svg width="24" height="24" viewBox="0 0 24 24" fill="none" xmlns="http://www.w3.org/2000/svg">
<path d="M0 4C0 1.79086 1.79086 0 4 0H20C22.2091 0 24 1.79086 24 4V20C24 22.2091 22.2091 24 20 24H4C1.79086 24 0 22.2091 0 20V4Z" fill="white"/>
<path fill-rule="evenodd" clip-rule="evenodd" d="M19.416 6.60239C19.7524 6.93881 19.7524 7.48227 19.416 7.81869L17.725 9.50943L14.4899 6.27459L16.1808 4.58385C16.342 4.42232 16.5608 4.33154 16.789 4.33154C17.0172 4.33154 17.236 4.42232 17.3972 4.58385L19.416 6.60239ZM13.6271 7.13721L5 15.7634V18.9983H8.23518L16.8623 10.372L13.6271 7.13721ZM7.51913 17.273H6.72543V16.4794L13.6271 9.57843L14.4208 10.372L7.51913 17.273Z" fill="#B5B8C7" fill-opacity="0.5"/>
<rect x="0.25" y="0.25" width="23.5" height="23.5" rx="3.75" stroke="#B5B8C7" stroke-opacity="0.5" stroke-width="0.5"/>
</svg>
