<svg width="24" height="24" viewBox="0 0 24 24" fill="none" xmlns="http://www.w3.org/2000/svg">
<g id="edit / default">
<path d="M0 4C0 1.79086 1.79086 0 4 0H20C22.2091 0 24 1.79086 24 4V20C24 22.2091 22.2091 24 20 24H4C1.79086 24 0 22.2091 0 20V4Z" fill="white"/>
<path id="icon/editor/border_color_24px" fill-rule="evenodd" clip-rule="evenodd" d="M19.416 6.60251C19.7524 6.93893 19.7524 7.48239 19.416 7.81881L17.725 9.50955L14.4899 6.27471L16.1808 4.58397C16.342 4.42244 16.5608 4.33167 16.789 4.33167C17.0172 4.33167 17.236 4.42244 17.3972 4.58397L19.416 6.60251ZM13.6271 7.13733L5 15.7636V18.9984H8.23518L16.8623 10.3722L13.6271 7.13733ZM7.51913 17.2732H6.72543V16.4795L13.6271 9.57856L14.4208 10.3722L7.51913 17.2732Z" fill="#B5B8C7"/>
<rect id="Rectangle 4" x="0.25" y="0.25" width="23.5" height="23.5" rx="3.75" stroke="#B5B8C7" stroke-width="0.5"/>
</g>
</svg>
