<svg width="60" height="60" viewBox="0 0 60 60" fill="none" xmlns="http://www.w3.org/2000/svg">
<rect width="60" height="60" rx="4" fill="#F9FAFB"/>
<path d="M15.123 33.7396V20.1248C15.123 19.3682 15.7363 18.7549 16.4929 18.7549H30.1008C30.8573 18.7549 31.4706 19.3682 31.4706 20.1248V33.7397C31.4706 33.9919 31.2662 34.1963 31.014 34.1963H15.5797C15.3274 34.1963 15.123 33.9919 15.123 33.7396ZM26.1118 38.4038C26.1118 39.9729 24.8397 41.245 23.2706 41.245C21.7015 41.245 20.4294 39.9729 20.4294 38.4038C20.4294 36.8346 21.7015 35.5626 23.2706 35.5626C24.8397 35.5626 26.1118 36.8346 26.1118 38.4038ZM24.6912 38.4038C24.6912 37.6192 24.0551 36.9832 23.2706 36.9832C22.486 36.9832 21.8499 37.6192 21.8499 38.4038C21.8499 39.1883 22.486 39.8244 23.2706 39.8244C24.0551 39.8244 24.6912 39.1883 24.6912 38.4038ZM20.8235 35.5625H15.7902C15.538 35.5625 15.3336 35.767 15.3336 36.0191V37.4045C15.3336 37.6567 15.538 37.8611 15.7902 37.8611H19.56C19.6932 36.9469 20.1547 36.1394 20.8235 35.5625ZM40.9774 38.4038C40.9774 39.9729 39.7053 41.245 38.1362 41.245C36.567 41.245 35.295 39.9729 35.295 38.4038C35.295 36.8346 36.567 35.5626 38.1362 35.5626C39.7053 35.5625 40.9774 36.8346 40.9774 38.4038ZM39.5568 38.4038C39.5568 37.6192 38.9207 36.9832 38.1362 36.9832C37.3515 36.9832 36.7156 37.6192 36.7156 38.4038C36.7156 39.1883 37.3516 39.8244 38.1362 39.8244C38.9207 39.8244 39.5568 39.1883 39.5568 38.4038ZM44.4323 36.0155V37.3645C44.4323 37.6167 44.2524 37.8611 44.0002 37.8611H41.8467C41.5822 36.0476 40.0215 34.6493 38.1363 34.6493C36.2507 34.6493 34.6899 36.0477 34.4255 37.8611H26.9812C26.8479 36.947 26.3865 36.1394 25.7177 35.5625H32.7762V22.5015C32.7762 21.9972 33.1851 21.5883 33.6895 21.5883H38.0003C39.2141 21.5883 40.3486 22.1912 41.0278 23.1972L43.8069 27.3133C44.2145 27.9171 44.4323 28.6289 44.4323 29.3574V35.5625V35.6562C44.4323 35.4218 44.4323 35.7634 44.4323 36.0155ZM42.0002 27.9999L39.1457 24.2609C39.0601 24.1394 38.9209 24.0671 38.7723 24.0671H35.3058C35.0537 24.0671 34.8492 24.2715 34.8492 24.5237V29.0149C34.8492 29.2671 35.0537 29.4715 35.3058 29.4715H42.0002C42.3701 29.4715 42.2131 28.3025 42.0002 27.9999Z" fill="#4E50FF"/>
</svg>
