<svg width="22" height="22" viewBox="0 0 22 22" fill="none" xmlns="http://www.w3.org/2000/svg">
<path d="M0 4C0 1.79086 1.79086 0 4 0H18C20.2091 0 22 1.79086 22 4V18C22 20.2091 20.2091 22 18 22H4C1.79086 22 0 20.2091 0 18V4Z" fill="white"/>
<g clip-path="url(#clip0)">
<path d="M16.3473 11.035C15.9249 11.035 15.5835 11.3773 15.5835 11.7988V17.91C15.5835 18.3309 15.2412 18.6738 14.8197 18.6738H4.12516C3.70345 18.6738 3.36132 18.3309 3.36132 17.91V7.21549C3.36132 6.79462 3.70345 6.45165 4.12516 6.45165H10.2363C10.6587 6.45165 11.0002 6.10939 11.0002 5.68781C11.0002 5.2661 10.6587 4.92383 10.2363 4.92383H4.12516C2.8617 4.92383 1.8335 5.95203 1.8335 7.21549V17.91C1.8335 19.1735 2.8617 20.2017 4.12516 20.2017H14.8197C16.0831 20.2017 17.1113 19.1735 17.1113 17.91V11.7988C17.1113 11.3764 16.7698 11.035 16.3473 11.035Z" fill="#B5B8C7"/>
<path d="M8.99586 10.3388C8.94242 10.3922 8.90648 10.4602 8.89123 10.5335L8.35118 13.2347C8.32601 13.3599 8.36573 13.489 8.45581 13.5799C8.5284 13.6525 8.62617 13.6914 8.72632 13.6914C8.75066 13.6914 8.77598 13.6892 8.80115 13.6838L11.5015 13.1438C11.5764 13.1284 11.6443 13.0926 11.6971 13.039L17.7409 6.99516L15.0406 4.29492L8.99586 10.3388Z" fill="#B5B8C7"/>
<path d="M19.6076 2.42776C18.8629 1.68294 17.6514 1.68294 16.9073 2.42776L15.8501 3.48491L18.5505 6.18528L19.6076 5.12799C19.9682 4.76824 20.1668 4.28848 20.1668 3.77822C20.1668 3.26797 19.9682 2.78821 19.6076 2.42776Z" fill="#B5B8C7"/>
</g>
<defs>
<clipPath id="clip0">
<rect width="18.3333" height="18.3333" fill="white" transform="translate(1.8335 1.83301)"/>
</clipPath>
</defs>
</svg>
