<svg width="70" height="60" viewBox="0 0 70 60" fill="none" xmlns="http://www.w3.org/2000/svg">
<path d="M67.5 24.5C67.5 38.031 56.531 49 43 49C29.469 49 18.5 38.031 18.5 24.5C18.5 10.969 29.469 0 43 0C56.531 0 67.5 10.969 67.5 24.5Z" fill="#FF3C2F" fill-opacity="0.15"/>
<path d="M42.295 25.115C42.6844 24.7256 42.6844 24.0944 42.295 23.705C41.9056 23.3156 41.2744 23.3156 40.885 23.705L36 28.59L31.115 23.705C30.7256 23.3156 30.0944 23.3156 29.705 23.705C29.3156 24.0944 29.3156 24.7256 29.705 25.115L34.59 30L29.705 34.885C29.3156 35.2744 29.3156 35.9056 29.705 36.295C30.0944 36.6844 30.7256 36.6844 31.115 36.295L36 31.41L40.885 36.295C41.2744 36.6844 41.9056 36.6844 42.295 36.295C42.6844 35.9056 42.6844 35.2744 42.295 34.885L37.41 30L42.295 25.115Z" fill="#070808" stroke="#070808" stroke-width="1.5"/>
<path fill-rule="evenodd" clip-rule="evenodd" d="M36 50C47.3218 50 56.5 40.8218 56.5 29.5C56.5 18.1782 47.3218 9 36 9C24.6782 9 15.5 18.1782 15.5 29.5C15.5 40.8218 24.6782 50 36 50ZM36 54C49.531 54 60.5 43.031 60.5 29.5C60.5 15.969 49.531 5 36 5C22.469 5 11.5 15.969 11.5 29.5C11.5 43.031 22.469 54 36 54Z" fill="#070808"/>
<circle cx="64.5" cy="53" r="5" fill="#FF3C2F" fill-opacity="0.15"/>
<path fill-rule="evenodd" clip-rule="evenodd" d="M62.5 58C64.1569 58 65.5 56.6569 65.5 55C65.5 53.3431 64.1569 52 62.5 52C60.8431 52 59.5 53.3431 59.5 55C59.5 56.6569 60.8431 58 62.5 58ZM62.5 60C65.2614 60 67.5 57.7614 67.5 55C67.5 52.2386 65.2614 50 62.5 50C59.7386 50 57.5 52.2386 57.5 55C57.5 57.7614 59.7386 60 62.5 60Z" fill="#070808"/>
<circle cx="3" cy="10.5" r="1.5" fill="#070808" stroke="#070808" stroke-width="2"/>
<path d="M16.5 5C16.5 7.76142 14.2614 10 11.5 10C8.73858 10 6.5 7.76142 6.5 5C6.5 2.23858 8.73858 0 11.5 0C14.2614 0 16.5 2.23858 16.5 5Z" fill="#FF3C2F" fill-opacity="0.15"/>
</svg>
