<svg width="18" height="18" viewBox="0 0 18 18" fill="none" xmlns="http://www.w3.org/2000/svg">
<path fill-rule="evenodd" clip-rule="evenodd" d="M9.00033 0.666748C4.40033 0.666748 0.666992 4.40008 0.666992 9.00008C0.666992 13.6001 4.40033 17.3334 9.00033 17.3334C13.6003 17.3334 17.3337 13.6001 17.3337 9.00008C17.3337 4.40008 13.6003 0.666748 9.00033 0.666748ZM9.83366 12.6667C9.83366 12.9429 9.6098 13.1667 9.33366 13.1667H8.66699C8.39085 13.1667 8.16699 12.9429 8.16699 12.6667V12.0001C8.16699 11.7239 8.39085 11.5001 8.66699 11.5001H9.33366C9.6098 11.5001 9.83366 11.7239 9.83366 12.0001V12.6667ZM9.33366 9.83342C9.6098 9.83342 9.83366 9.60956 9.83366 9.33342V5.33341C9.83366 5.05727 9.6098 4.83341 9.33366 4.83341H8.66699C8.39085 4.83341 8.16699 5.05727 8.16699 5.33341V9.33342C8.16699 9.60956 8.39085 9.83342 8.66699 9.83342H9.33366Z" fill="#FF3C2F"/>
</svg>
