<svg width="69" height="60" viewBox="0 0 69 60" fill="none" xmlns="http://www.w3.org/2000/svg">
<path d="M67 24.5C67 38.031 56.031 49 42.5 49C28.969 49 18 38.031 18 24.5C18 10.969 28.969 0 42.5 0C56.031 0 67 10.969 67 24.5Z" fill="#0915CC" fill-opacity="0.15"/>
<path d="M37 37.25C37 38.4926 35.9926 39.5 34.75 39.5C33.5074 39.5 32.5 38.4926 32.5 37.25C32.5 36.0074 33.5074 35 34.75 35C35.9926 35 37 36.0074 37 37.25Z" fill="#070808"/>
<path d="M36.1674 31.5613C36.0715 32.2707 35.4659 32.8 34.75 32.8C34.0341 32.8 33.4285 32.2707 33.3326 31.5613L31.8065 20.2678C31.6443 19.0677 32.5774 18 33.7884 18H35.7116C36.9226 18 37.8557 19.0677 37.6935 20.2678L36.1674 31.5613Z" fill="#070808"/>
<path fill-rule="evenodd" clip-rule="evenodd" d="M35.5 50C46.8218 50 56 40.8218 56 29.5C56 18.1782 46.8218 9 35.5 9C24.1782 9 15 18.1782 15 29.5C15 40.8218 24.1782 50 35.5 50ZM35.5 54C49.031 54 60 43.031 60 29.5C60 15.969 49.031 5 35.5 5C21.969 5 11 15.969 11 29.5C11 43.031 21.969 54 35.5 54Z" fill="#070808"/>
<circle cx="64" cy="53" r="5" fill="#0915CC" fill-opacity="0.15"/>
<path fill-rule="evenodd" clip-rule="evenodd" d="M62 58C63.6569 58 65 56.6569 65 55C65 53.3431 63.6569 52 62 52C60.3431 52 59 53.3431 59 55C59 56.6569 60.3431 58 62 58ZM62 60C64.7614 60 67 57.7614 67 55C67 52.2386 64.7614 50 62 50C59.2386 50 57 52.2386 57 55C57 57.7614 59.2386 60 62 60Z" fill="#070808"/>
<circle cx="2.5" cy="10.5" r="1.5" fill="#070808" stroke="#070808" stroke-width="2"/>
<path d="M16 5C16 7.76142 13.7614 10 11 10C8.23858 10 6 7.76142 6 5C6 2.23858 8.23858 0 11 0C13.7614 0 16 2.23858 16 5Z" fill="#0915CC" fill-opacity="0.15"/>
</svg>
