<svg width="14" height="14" viewBox="0 0 14 14" fill="none" xmlns="http://www.w3.org/2000/svg">
<path fill-rule="evenodd" clip-rule="evenodd" d="M4.22222 0H12.7778C13.45 0 14 0.7 14 1.55556V12.4444C14 13.3 13.45 14 12.7778 14H4.22222C3.54389 14 3 13.3 3 12.4444V9.94444C3 9.60694 3.2736 9.33333 3.61111 9.33333C3.94862 9.33333 4.22222 9.60694 4.22222 9.94444V12.4444H12.7778V1.55556H4.22222V4.05556C4.22222 4.39306 3.94862 4.66667 3.61111 4.66667C3.2736 4.66667 3 4.39306 3 4.05556V1.55556C3 0.7 3.54389 0 4.22222 0ZM6.06225 10.34C5.75953 10.0373 5.75906 9.54666 6.06119 9.24336L7.52111 7.77778H0.777778C0.348223 7.77778 0 7.42955 0 7C0 6.57045 0.348222 6.22222 0.777777 6.22222H7.52111L6.06119 4.75664C5.75906 4.45334 5.75953 3.96269 6.06225 3.65997C6.36538 3.35685 6.85684 3.35684 7.15997 3.65997L10.1464 6.64645C10.3417 6.84171 10.3417 7.15829 10.1464 7.35355L7.15998 10.34C6.85685 10.6432 6.36538 10.6432 6.06225 10.34Z" fill="#757C9F"/>
</svg>
