<svg width="69" height="60" viewBox="0 0 69 60" fill="none" xmlns="http://www.w3.org/2000/svg">
<path d="M67 24.5C67 38.031 56.031 49 42.5 49C28.969 49 18 38.031 18 24.5C18 10.969 28.969 0 42.5 0C56.031 0 67 10.969 67 24.5Z" fill="#0915CC" fill-opacity="0.15"/>
<path d="M45.8099 21.4188C45.0487 20.6397 43.7962 20.6375 43.0323 21.4138L31.7143 32.9152L28.1022 29.2588C27.3416 28.4889 26.0982 28.4901 25.3391 29.2614C24.5961 30.0165 24.5961 31.228 25.3391 31.983L29.7388 36.4541C30.8247 37.5575 32.6039 37.5575 33.6897 36.4541L45.8051 24.1424C46.5481 23.3873 46.5503 22.1765 45.8099 21.4188Z" fill="#070808"/>
<path fill-rule="evenodd" clip-rule="evenodd" d="M35.5 50C46.8218 50 56 40.8218 56 29.5C56 18.1782 46.8218 9 35.5 9C24.1782 9 15 18.1782 15 29.5C15 40.8218 24.1782 50 35.5 50ZM35.5 54C49.031 54 60 43.031 60 29.5C60 15.969 49.031 5 35.5 5C21.969 5 11 15.969 11 29.5C11 43.031 21.969 54 35.5 54Z" fill="#070808"/>
<circle cx="64" cy="53" r="5" fill="#0915CC" fill-opacity="0.15"/>
<path fill-rule="evenodd" clip-rule="evenodd" d="M62 58C63.6569 58 65 56.6569 65 55C65 53.3431 63.6569 52 62 52C60.3431 52 59 53.3431 59 55C59 56.6569 60.3431 58 62 58ZM62 60C64.7614 60 67 57.7614 67 55C67 52.2386 64.7614 50 62 50C59.2386 50 57 52.2386 57 55C57 57.7614 59.2386 60 62 60Z" fill="#070808"/>
<circle cx="2.5" cy="10.5" r="1.5" fill="#070808" stroke="#070808" stroke-width="2"/>
<path d="M16 5C16 7.76142 13.7614 10 11 10C8.23858 10 6 7.76142 6 5C6 2.23858 8.23858 0 11 0C13.7614 0 16 2.23858 16 5Z" fill="#0915CC" fill-opacity="0.15"/>
</svg>
