<svg width="16" height="20" viewBox="0 0 16 20" fill="none" xmlns="http://www.w3.org/2000/svg">
<path d="M8.00019 3.99995V1.20706C8.00019 0.761605 7.46162 0.538521 7.14664 0.853504L3.35374 4.6464C3.15848 4.84166 3.15848 5.15824 3.35374 5.3535L7.14664 9.1464C7.46162 9.46138 8.00019 9.2383 8.00019 8.79284V5.99995C11.3102 5.99995 14.0002 8.68995 14.0002 12C14.0002 15.3099 11.3102 18 8.00019 18C4.8585 18 2.27536 15.5766 2.02078 12.4998C1.99801 12.2246 1.77633 12 1.50019 12H0.50019C0.224048 12 -0.00143127 12.2244 0.0155487 12.5C0.273484 16.6869 3.74815 20 8.00019 20C12.4202 20 16.0002 16.42 16.0002 12C16.0002 7.57995 12.4202 3.99995 8.00019 3.99995Z" fill="#B5B8C7"/>
</svg>
