<svg width="16" height="20" viewBox="0 0 16 20" fill="none" xmlns="http://www.w3.org/2000/svg">
<path d="M8.00019 4.00093V1.20803C8.00019 0.762581 7.46162 0.539498 7.14664 0.85448L3.35374 4.64737C3.15848 4.84264 3.15848 5.15922 3.35374 5.35448L7.14664 9.14737C7.46162 9.46236 8.00019 9.23927 8.00019 8.79382V6.00093C11.3102 6.00093 14.0002 8.69093 14.0002 12.0009C14.0002 15.3109 11.3102 18.0009 8.00019 18.0009C4.8585 18.0009 2.27536 15.5775 2.02078 12.5008C1.99801 12.2256 1.77633 12.0009 1.50019 12.0009H0.50019C0.224048 12.0009 -0.00143127 12.2254 0.0155487 12.501C0.273484 16.6878 3.74815 20.0009 8.00019 20.0009C12.4202 20.0009 16.0002 16.4209 16.0002 12.0009C16.0002 7.58093 12.4202 4.00093 8.00019 4.00093Z" fill="#FF3C2F"/>
</svg>
