<svg width="24" height="24" viewBox="0 0 24 24" fill="none" xmlns="http://www.w3.org/2000/svg">
<path d="M0 4C0 1.79086 1.79086 0 4 0H20C22.2091 0 24 1.79086 24 4V20C24 22.2091 22.2091 24 20 24H4C1.79086 24 0 22.2091 0 20V4Z" fill="white"/>
<rect x="0.25" y="0.25" width="23.5" height="23.5" rx="3.75" stroke="#0915CC" stroke-width="0.5"/>
<path d="M14.2062 8.11538C14.595 7.72569 14.5947 7.09466 14.2054 6.70538C13.8158 6.31581 13.1842 6.31581 12.7946 6.70538L7.85355 11.6464C7.65829 11.8417 7.65829 12.1583 7.85355 12.3536L12.7946 17.2946C13.1842 17.6842 13.8158 17.6842 14.2054 17.2946C14.5947 16.9053 14.595 16.2743 14.2062 15.8846L10.33 12L14.2062 8.11538Z" fill="#0915CC"/>
</svg>
