<svg width="32" height="36" viewBox="0 0 32 36" fill="none" xmlns="http://www.w3.org/2000/svg">
<path d="M15.7462 3.50042L21.7598 6.95488L24.8089 5.2085L15.7462 0L0.608398 8.70125L3.64212 10.4476L15.7462 3.50042Z" fill="#0915CC"/>
<path d="M27.8428 6.95508L15.7464 13.9023L9.73283 10.4478L6.69141 12.1942L15.7464 17.3951L30.8919 8.70146L27.8428 6.95508Z" fill="#0915CC"/>
<path d="M3.04142 18.6434L0 16.897V27.2986L15.1378 35.9999V32.5071L3.04142 25.5523V18.6434Z" fill="#0915CC"/>
<path d="M0 13.4039L12.0964 20.3511V27.26L15.1378 29.0141V18.6047L0 9.91113V13.4039Z" fill="#0915CC"/>
<path d="M25.4172 16.8971V13.4043L16.3545 18.6051V36L19.3959 34.2536V20.3515L25.4172 16.8971Z" fill="#0915CC"/>
<path d="M28.4511 11.6575V25.5519L22.4375 29.0141V32.5068L31.5002 27.2983V9.91113L28.4511 11.6575Z" fill="#0915CC"/>
</svg>
