<svg width="324" height="128" viewBox="0 0 324 128" fill="none" xmlns="http://www.w3.org/2000/svg">
<rect width="324" height="128" rx="10" fill="#F2F3F6"/>
<path d="M163.166 52.6663C163.166 53.2186 162.719 53.6663 162.166 53.6663H156.166V59.6663C156.166 60.2186 155.719 60.6663 155.166 60.6663H154.833C154.281 60.6663 153.833 60.2186 153.833 59.6663V53.6663H147.833C147.281 53.6663 146.833 53.2186 146.833 52.6663V52.333C146.833 51.7807 147.281 51.333 147.833 51.333H153.833V45.333C153.833 44.7807 154.281 44.333 154.833 44.333H155.166C155.719 44.333 156.166 44.7807 156.166 45.333V51.333H162.166C162.719 51.333 163.166 51.7807 163.166 52.333V52.6663Z" fill="#757C9F"/>
<path d="M111.743 75.3182H110.53V83.3324H110.431L104.862 75.3182H103.669V85.5H104.902V77.5057H105.002L110.55 85.5H111.743V75.3182ZM117.043 85.6591C118.594 85.6591 119.728 84.8835 120.085 83.7301L118.952 83.4119C118.654 84.2074 117.963 84.6051 117.043 84.6051C115.666 84.6051 114.716 83.7152 114.661 82.0795H120.205V81.5824C120.205 78.7386 118.514 77.7642 116.924 77.7642C114.855 77.7642 113.483 79.3949 113.483 81.7415C113.483 84.0881 114.835 85.6591 117.043 85.6591ZM114.661 81.0653C114.741 79.8771 115.581 78.8182 116.924 78.8182C118.196 78.8182 119.012 79.7727 119.012 81.0653H114.661ZM123.51 85.5H124.663L126.334 79.6335H126.453L128.123 85.5H129.277L131.603 77.8636H130.371L128.72 83.6903H128.64L127.03 77.8636H125.777L124.146 83.7102H124.067L122.416 77.8636H121.183L123.51 85.5ZM137.249 85.5L138.273 82.6165H142.389L143.414 85.5H144.706L140.968 75.3182H139.695L135.956 85.5H137.249ZM138.661 81.5227L140.291 76.929H140.371L142.002 81.5227H138.661ZM151.332 79.5739C150.964 78.4901 150.139 77.7642 148.628 77.7642C147.017 77.7642 145.824 78.679 145.824 79.9716C145.824 81.0256 146.45 81.7315 147.852 82.0597L149.125 82.358C149.895 82.5369 150.258 82.9048 150.258 83.4318C150.258 84.0881 149.562 84.625 148.469 84.625C147.509 84.625 146.907 84.2124 146.699 83.392L145.585 83.6705C145.858 84.968 146.927 85.6591 148.488 85.6591C150.263 85.6591 151.471 84.6896 151.471 83.3722C151.471 82.3082 150.805 81.6371 149.443 81.304L148.309 81.0256C147.405 80.8018 146.997 80.4986 146.997 79.9119C146.997 79.2557 147.693 78.7784 148.628 78.7784C149.652 78.7784 150.074 79.3452 150.278 79.8722L151.332 79.5739ZM158.437 79.5739C158.069 78.4901 157.243 77.7642 155.732 77.7642C154.121 77.7642 152.928 78.679 152.928 79.9716C152.928 81.0256 153.554 81.7315 154.956 82.0597L156.229 82.358C157 82.5369 157.363 82.9048 157.363 83.4318C157.363 84.0881 156.667 84.625 155.573 84.625C154.613 84.625 154.012 84.2124 153.803 83.392L152.689 83.6705C152.963 84.968 154.032 85.6591 155.593 85.6591C157.368 85.6591 158.576 84.6896 158.576 83.3722C158.576 82.3082 157.91 81.6371 156.547 81.304L155.414 81.0256C154.509 80.8018 154.101 80.4986 154.101 79.9119C154.101 79.2557 154.797 78.7784 155.732 78.7784C156.756 78.7784 157.179 79.3452 157.383 79.8722L158.437 79.5739ZM163.334 85.6591C164.885 85.6591 166.018 84.8835 166.376 83.7301L165.243 83.4119C164.944 84.2074 164.253 84.6051 163.334 84.6051C161.957 84.6051 161.007 83.7152 160.952 82.0795H166.496V81.5824C166.496 78.7386 164.805 77.7642 163.214 77.7642C161.146 77.7642 159.774 79.3949 159.774 81.7415C159.774 84.0881 161.126 85.6591 163.334 85.6591ZM160.952 81.0653C161.032 79.8771 161.872 78.8182 163.214 78.8182C164.487 78.8182 165.302 79.7727 165.302 81.0653H160.952ZM171.391 77.8636H169.761V76.0341H168.587V77.8636H167.434V78.858H168.587V83.6307C168.587 84.9631 169.661 85.5994 170.656 85.5994C171.093 85.5994 171.372 85.5199 171.531 85.4602L171.292 84.4062C171.193 84.4261 171.033 84.4659 170.775 84.4659C170.258 84.4659 169.761 84.3068 169.761 83.3125V78.858H171.391V77.8636ZM176.276 76.4119H179.478V85.5H180.711V76.4119H183.912V75.3182H176.276V76.4119ZM185.327 88.3636C186.386 88.3636 187.132 87.8018 187.574 86.6136L190.826 77.8835L189.543 77.8636L187.435 83.9489H187.355L185.247 77.8636H183.975L186.799 85.5398L186.58 86.1364C186.152 87.2997 185.625 87.4091 184.77 87.1903L184.472 88.2244C184.591 88.2841 184.929 88.3636 185.327 88.3636ZM192.168 88.3636H193.341V84.3267H193.441C193.699 84.7443 194.196 85.6591 195.668 85.6591C197.577 85.6591 198.909 84.1278 198.909 81.7017C198.909 79.2955 197.577 77.7642 195.648 77.7642C194.157 77.7642 193.699 78.679 193.441 79.0767H193.301V77.8636H192.168V88.3636ZM193.321 81.6818C193.321 79.9716 194.077 78.8182 195.509 78.8182C197 78.8182 197.736 80.071 197.736 81.6818C197.736 83.3125 196.98 84.6051 195.509 84.6051C194.097 84.6051 193.321 83.4119 193.321 81.6818ZM203.691 85.6591C205.242 85.6591 206.376 84.8835 206.733 83.7301L205.6 83.4119C205.302 84.2074 204.611 84.6051 203.691 84.6051C202.314 84.6051 201.364 83.7152 201.309 82.0795H206.853V81.5824C206.853 78.7386 205.162 77.7642 203.572 77.7642C201.503 77.7642 200.131 79.3949 200.131 81.7415C200.131 84.0881 201.483 85.6591 203.691 85.6591ZM201.309 81.0653C201.389 79.8771 202.229 78.8182 203.572 78.8182C204.844 78.8182 205.66 79.7727 205.66 81.0653H201.309Z" fill="#757C9F"/>
</svg>
