<svg width="324" height="108" viewBox="0 0 324 108" fill="none" xmlns="http://www.w3.org/2000/svg">
<rect width="324" height="108" rx="10" fill="#F2F3F6"/>
<path d="M163.167 42.6663C163.167 43.2186 162.719 43.6663 162.167 43.6663H156.167V49.6663C156.167 50.2186 155.719 50.6663 155.167 50.6663H154.833C154.281 50.6663 153.833 50.2186 153.833 49.6663V43.6663H147.833C147.281 43.6663 146.833 43.2186 146.833 42.6663V42.333C146.833 41.7807 147.281 41.333 147.833 41.333H153.833V35.333C153.833 34.7807 154.281 34.333 154.833 34.333H155.167C155.719 34.333 156.167 34.7807 156.167 35.333V41.333H162.167C162.719 41.333 163.167 41.7807 163.167 42.333V42.6663Z" fill="#0915CC"/>
<path d="M129.484 65.3182H128.271V73.3324H128.171L122.603 65.3182H121.41V75.5H122.643V67.5057H122.742L128.291 75.5H129.484V65.3182ZM134.783 75.6591C136.335 75.6591 137.468 74.8835 137.826 73.7301L136.693 73.4119C136.394 74.2074 135.703 74.6051 134.783 74.6051C133.406 74.6051 132.457 73.7152 132.402 72.0795H137.945V71.5824C137.945 68.7386 136.255 67.7642 134.664 67.7642C132.596 67.7642 131.224 69.3949 131.224 71.7415C131.224 74.0881 132.576 75.6591 134.783 75.6591ZM132.402 71.0653C132.482 69.8771 133.322 68.8182 134.664 68.8182C135.937 68.8182 136.752 69.7727 136.752 71.0653H132.402ZM141.25 75.5H142.404L144.074 69.6335H144.194L145.864 75.5H147.017L149.344 67.8636H148.111L146.461 73.6903H146.381L144.77 67.8636H143.517L141.887 73.7102H141.807L140.157 67.8636H138.924L141.25 75.5ZM154.989 75.5L156.014 72.6165H160.13L161.154 75.5H162.447L158.708 65.3182H157.435L153.697 75.5H154.989ZM156.401 71.5227L158.032 66.929H158.112L159.742 71.5227H156.401ZM169.073 69.5739C168.705 68.4901 167.88 67.7642 166.368 67.7642C164.757 67.7642 163.564 68.679 163.564 69.9716C163.564 71.0256 164.191 71.7315 165.593 72.0597L166.865 72.358C167.636 72.5369 167.999 72.9048 167.999 73.4318C167.999 74.0881 167.303 74.625 166.209 74.625C165.25 74.625 164.648 74.2124 164.439 73.392L163.326 73.6705C163.599 74.968 164.668 75.6591 166.229 75.6591C168.004 75.6591 169.212 74.6896 169.212 73.3722C169.212 72.3082 168.546 71.6371 167.184 71.304L166.05 71.0256C165.145 70.8018 164.738 70.4986 164.738 69.9119C164.738 69.2557 165.434 68.7784 166.368 68.7784C167.392 68.7784 167.815 69.3452 168.019 69.8722L169.073 69.5739ZM176.177 69.5739C175.809 68.4901 174.984 67.7642 173.473 67.7642C171.862 67.7642 170.669 68.679 170.669 69.9716C170.669 71.0256 171.295 71.7315 172.697 72.0597L173.97 72.358C174.74 72.5369 175.103 72.9048 175.103 73.4318C175.103 74.0881 174.407 74.625 173.314 74.625C172.354 74.625 171.752 74.2124 171.544 73.392L170.43 73.6705C170.703 74.968 171.772 75.6591 173.333 75.6591C175.108 75.6591 176.316 74.6896 176.316 73.3722C176.316 72.3082 175.65 71.6371 174.288 71.304L173.154 71.0256C172.25 70.8018 171.842 70.4986 171.842 69.9119C171.842 69.2557 172.538 68.7784 173.473 68.7784C174.497 68.7784 174.919 69.3452 175.123 69.8722L176.177 69.5739ZM181.074 75.6591C182.625 75.6591 183.759 74.8835 184.117 73.7301L182.983 73.4119C182.685 74.2074 181.994 74.6051 181.074 74.6051C179.697 74.6051 178.748 73.7152 178.693 72.0795H184.236V71.5824C184.236 68.7386 182.546 67.7642 180.955 67.7642C178.887 67.7642 177.515 69.3949 177.515 71.7415C177.515 74.0881 178.867 75.6591 181.074 75.6591ZM178.693 71.0653C178.772 69.8771 179.613 68.8182 180.955 68.8182C182.228 68.8182 183.043 69.7727 183.043 71.0653H178.693ZM189.132 67.8636H187.501V66.0341H186.328V67.8636H185.175V68.858H186.328V73.6307C186.328 74.9631 187.402 75.5994 188.396 75.5994C188.834 75.5994 189.112 75.5199 189.271 75.4602L189.033 74.4062C188.933 74.4261 188.774 74.4659 188.516 74.4659C187.999 74.4659 187.501 74.3068 187.501 73.3125V68.858H189.132V67.8636Z" fill="#0915CC"/>
</svg>
