<svg width="20" height="16" viewBox="0 0 20 16" fill="none" xmlns="http://www.w3.org/2000/svg">
<path fill-rule="evenodd" clip-rule="evenodd" d="M12.7273 8C14.7364 8 16.3636 6.32188 16.3636 4.25C16.3636 2.17812 14.7364 0.5 12.7273 0.5C10.7182 0.5 9.09091 2.17812 9.09091 4.25C9.09091 6.32188 10.7182 8 12.7273 8ZM12.7273 2.375C13.7273 2.375 14.5455 3.21875 14.5455 4.25C14.5455 5.28125 13.7273 6.125 12.7273 6.125C11.7273 6.125 10.9091 5.28125 10.9091 4.25C10.9091 3.21875 11.7273 2.375 12.7273 2.375ZM5.45455 13.625C5.45455 11.1313 10.3 9.875 12.7273 9.875C15.1545 9.875 20 11.1313 20 13.625V14.5C20 15.0523 19.5523 15.5 19 15.5H6.45455C5.90226 15.5 5.45455 15.0523 5.45455 14.5V13.625ZM7.27273 13.625C7.47273 12.95 10.2818 11.75 12.7273 11.75C15.1818 11.75 18 12.9594 18.1818 13.625H7.27273ZM4.54545 9.90341C4.54545 10.4055 4.13844 10.8125 3.63636 10.8125C3.13429 10.8125 2.72727 10.4055 2.72727 9.90341V8H0.9375C0.419733 8 0 7.58027 0 7.0625C0 6.54473 0.419733 6.125 0.9375 6.125H2.72727V4.22159C2.72727 3.71951 3.13429 3.3125 3.63636 3.3125C4.13844 3.3125 4.54545 3.71951 4.54545 4.22159V6.125H6.33523C6.85299 6.125 7.27273 6.54473 7.27273 7.0625C7.27273 7.58027 6.85299 8 6.33523 8H4.54545V9.90341Z" fill="white"/>
</svg>
