<svg width="28" height="29" viewBox="0 0 28 29" fill="none" xmlns="http://www.w3.org/2000/svg">
<path d="M22.1668 14.6663C22.1668 15.2186 21.7191 15.6663 21.1668 15.6663H15.1668V21.6663C15.1668 22.2186 14.7191 22.6663 14.1668 22.6663H13.8335C13.2812 22.6663 12.8335 22.2186 12.8335 21.6663V15.6663H6.8335C6.28121 15.6663 5.8335 15.2186 5.8335 14.6663V14.333C5.8335 13.7807 6.28121 13.333 6.8335 13.333H12.8335V7.33301C12.8335 6.78072 13.2812 6.33301 13.8335 6.33301H14.1668C14.7191 6.33301 15.1668 6.78072 15.1668 7.33301V13.333H21.1668C21.7191 13.333 22.1668 13.7807 22.1668 14.333V14.6663Z" fill="#757C9F"/>
</svg>
