<svg width="70" height="60" viewBox="0 0 70 60" fill="none" xmlns="http://www.w3.org/2000/svg">
<path d="M67.5 24.5C67.5 38.031 56.531 49 43 49C29.469 49 18.5 38.031 18.5 24.5C18.5 10.969 29.469 0 43 0C56.531 0 67.5 10.969 67.5 24.5Z" fill="#0915CC" fill-opacity="0.15"/>
<path d="M33.8184 33.4771C33.8184 33.6371 33.9481 33.7669 34.1081 33.7669H36.7587C36.9187 33.7669 37.0485 33.6371 37.0485 33.4771C37.0655 31.8152 37.6621 31.0396 39.0087 30.2299C40.6025 29.2839 41.6422 28.0311 41.6422 26.0282C41.6422 23.0453 39.2388 21.3066 35.8553 21.3066C33.3523 21.3066 31.2231 22.3666 30.4606 24.5767C30.1403 25.5051 30.9702 26.3351 31.9523 26.3351C32.8939 26.3351 33.5963 25.473 34.2691 24.8143C34.6796 24.4123 35.247 24.2044 35.8382 24.2044C36.9888 24.2044 37.9178 24.9714 37.9178 26.1561C37.9178 27.2726 37.1081 28.014 36.0598 28.6788C34.628 29.5822 33.8269 30.4941 33.8184 33.4771ZM35.4973 39.2214C36.5882 39.2214 37.5343 38.3095 37.5428 37.176C37.5343 36.0595 36.5882 35.1476 35.4973 35.1476C34.3723 35.1476 33.4434 36.0595 33.4519 37.176C33.4434 38.3095 34.3723 39.2214 35.4973 39.2214Z" fill="#070808"/>
<path fill-rule="evenodd" clip-rule="evenodd" d="M36 50C47.3218 50 56.5 40.8218 56.5 29.5C56.5 18.1782 47.3218 9 36 9C24.6782 9 15.5 18.1782 15.5 29.5C15.5 40.8218 24.6782 50 36 50ZM36 54C49.531 54 60.5 43.031 60.5 29.5C60.5 15.969 49.531 5 36 5C22.469 5 11.5 15.969 11.5 29.5C11.5 43.031 22.469 54 36 54Z" fill="#070808"/>
<circle cx="64.5" cy="53" r="5" fill="#0915CC" fill-opacity="0.15"/>
<path fill-rule="evenodd" clip-rule="evenodd" d="M62.5 58C64.1569 58 65.5 56.6569 65.5 55C65.5 53.3431 64.1569 52 62.5 52C60.8431 52 59.5 53.3431 59.5 55C59.5 56.6569 60.8431 58 62.5 58ZM62.5 60C65.2614 60 67.5 57.7614 67.5 55C67.5 52.2386 65.2614 50 62.5 50C59.7386 50 57.5 52.2386 57.5 55C57.5 57.7614 59.7386 60 62.5 60Z" fill="#070808"/>
<circle cx="3" cy="10.5" r="1.5" fill="#070808" stroke="#070808" stroke-width="2"/>
<path d="M16.5 5C16.5 7.76142 14.2614 10 11.5 10C8.73858 10 6.5 7.76142 6.5 5C6.5 2.23858 8.73858 0 11.5 0C14.2614 0 16.5 2.23858 16.5 5Z" fill="#0915CC" fill-opacity="0.15"/>
</svg>
