<svg width="24" height="24" viewBox="0 0 24 24" fill="none" xmlns="http://www.w3.org/2000/svg">
<path d="M0 4C0 1.79086 1.79086 0 4 0H20C22.2091 0 24 1.79086 24 4V20C24 22.2091 22.2091 24 20 24H4C1.79086 24 0 22.2091 0 20V4Z" fill="white"/>
<rect x="0.25" y="0.25" width="23.5" height="23.5" rx="3.75" stroke="#0915CC" stroke-width="0.5"/>
<path d="M9.79385 8.11538C9.405 7.72569 9.40534 7.09466 9.79462 6.70538C10.1842 6.31581 10.8158 6.31581 11.2054 6.70538L16.1464 11.6464C16.3417 11.8417 16.3417 12.1583 16.1464 12.3536L11.2054 17.2946C10.8158 17.6842 10.1842 17.6842 9.79462 17.2946C9.40534 16.9053 9.405 16.2743 9.79385 15.8846L13.67 12L9.79385 8.11538Z" fill="#0915CC"/>
</svg>
