<svg width="28" height="28" viewBox="0 0 28 28" fill="none" xmlns="http://www.w3.org/2000/svg">
<rect x="0.5" y="0.5" width="27" height="27" rx="13.5" fill="#0915CC"/>
<path d="M19.8337 14.0003C19.8337 14.4606 19.4606 14.8337 19.0003 14.8337H14.8337V19.0003C14.8337 19.4606 14.4606 19.8337 14.0003 19.8337C13.5401 19.8337 13.167 19.4606 13.167 19.0003V14.8337H9.00033C8.54009 14.8337 8.16699 14.4606 8.16699 14.0003C8.16699 13.5401 8.54009 13.167 9.00033 13.167H13.167V9.00033C13.167 8.54009 13.5401 8.16699 14.0003 8.16699C14.4606 8.16699 14.8337 8.54009 14.8337 9.00033V13.167H19.0003C19.4606 13.167 19.8337 13.5401 19.8337 14.0003Z" fill="white"/>
<rect x="0.5" y="0.5" width="27" height="27" rx="13.5" stroke="#0915CC"/>
</svg>
