<svg width="18" height="18" viewBox="0 0 18 18" fill="none" xmlns="http://www.w3.org/2000/svg">
<path fill-rule="evenodd" clip-rule="evenodd" d="M0 0H2V2H0V0ZM2 4.00016H0V6.00016H2V4.00016ZM0 18.0002H2V16.0002H0V18.0002ZM2 14H0V12H2V14ZM3.99992 18.0002H5.99992V16.0002H3.99992V18.0002ZM5.99992 0H3.99992V2H5.99992V0ZM12 0H14V2H12V0ZM10.0001 4.00016H8.00008V6.00016H10.0001V4.00016ZM8.00008 0H10.0001V2H8.00008V0ZM15.9999 14H17.9999V12H15.9999V14ZM10.0001 18.0002H8.00008V16.0002H10.0001V18.0002ZM0 9.99984H18V7.99984H0V9.99984ZM15.9999 2V0H17.9999V2H15.9999ZM15.9999 6.00016H17.9999V4.00016H15.9999V6.00016ZM10.0001 14H8.00008V12H10.0001V14ZM12 18.0002H14V16.0002H12V18.0002ZM17.9999 18.0002H15.9999V16.0002H17.9999V18.0002Z" fill="#757C9F"/>
</svg>
